<?xml version="1.0" encoding="utf-8"?>
<!-- Generator: Adobe Illustrator 27.3.1, SVG Export Plug-In . SVG Version: 6.00 Build 0)  -->
<svg version="1.1" id="Layer_1" xmlns="http://www.w3.org/2000/svg" xmlns:xlink="http://www.w3.org/1999/xlink" x="0px" y="0px"
	 viewBox="0 0 300 126.09" style="enable-background:new 0 0 300 126.09;" xml:space="preserve">
<style type="text/css">
	.st0{fill:#FFFFFF;}
</style>
<g>
	<path class="st0" d="M56.41,88.07c-0.36,1.06-0.97,1.43-2.12,1.42c-5.08-0.08-10.16-0.03-15.24-0.03c-10.61,0-21.22,0-31.83,0
		c-0.63,0-1.26,0-2.01,0c-0.03,0.57-0.09,1.08-0.08,1.59c0.05,2.41,0.35,4.79,0.87,7.14c0.77,3.48,1.81,6.88,3.68,9.94
		c1.03,1.68,2.04,3.4,3.45,4.8c2.54,2.52,5.25,4.76,8.63,6.18c5.27,2.21,10.68,2.33,16.17,1.53c1.88-0.27,3.74-0.85,5.51-1.55
		c0.96-0.38,2.06-0.67,2.82-1.5c0.05-0.05,0.12-0.09,0.19-0.11c1.45-0.42,2.63-1.36,3.91-2.1c1.06-0.61,1.27-0.53,1.69,0.63
		c0.13,0.35,0.29,0.7,0.52,0.98c1.09,1.3,0.08,2.68-1.08,3.29c-0.81,0.43-1.71,0.69-2.51,1.14c-2.16,1.22-4.44,2.11-6.8,2.84
		c-2.68,0.82-5.43,1.14-8.21,1.33c-6.57,0.45-12.7-1.04-18.32-4.42c-3.45-2.07-6.29-4.84-8.66-8.11c-2.23-3.07-3.83-6.44-4.99-10.03
		c-1.02-3.16-1.63-6.4-1.86-9.71c-0.36-5.28-0.12-10.51,1.23-15.65c0.97-3.72,2.37-7.3,4.43-10.56c2.49-3.94,5.57-7.31,9.52-9.91
		c3.98-2.62,8.32-4.07,13.01-4.58c1.95-0.21,3.91-0.08,5.85,0.25c1.93,0.33,3.85,0.71,5.67,1.45c0.9,0.37,1.77,0.81,2.65,1.24
		c3.06,1.51,5.55,3.71,7.55,6.44c0.93,1.27,1.79,2.61,2.47,4.02c0.87,1.78,1.69,3.62,2.23,5.52c0.58,2.05,0.93,4.18,1.18,6.29
		c0.28,2.42,0.34,4.87,0.51,7.3 M5.25,85c15.5-0.03,30.9,0,46.39-0.01c0-0.42,0.02-0.68,0-0.93c-0.29-2.95-0.59-5.9-0.89-8.85
		c-0.03-0.25-0.15-0.49-0.24-0.74c-0.16-0.45-0.34-0.9-0.47-1.36c-0.16-0.58-0.23-1.19-0.44-1.74c-0.71-1.89-1.53-3.74-2.58-5.48
		c-1.04-1.74-2.48-3.1-3.91-4.49c-1.45-1.41-3.34-2.06-5.07-2.93c-1.33-0.67-2.94-0.91-4.46-1.08c-1.64-0.18-3.31-0.05-4.96-0.09
		c-2.34-0.06-4.55,0.55-6.68,1.4c-1.46,0.58-2.8,1.37-4.13,2.25c-1.82,1.19-3.38,2.6-4.83,4.18c-1.42,1.55-2.5,3.34-3.58,5.14
		c-0.95,1.59-1.66,3.28-2.27,4.98C6.4,77.28,6,79.44,5.56,81.56C5.33,82.64,4.99,83.74,5.25,85z"/>
	<path class="st0" d="M171.91,125.26c-13.37-3.42-17.27-21.54-7.98-31.12c7.63-7.52,18.81-9.78,28.95-11.62
		c2.77-1.23,12.26,0.23,11.51-3.66c-0.02-8.24-2.45-18.39-11.63-20.61c-17.48-4.75-27.19,13.17-30.37,4.19
		c3.41-3.3,8.03-4.67,12.05-6.86c20.6-8.18,37.03,3.85,34.81,26.21c-1.05,13.71,2.04,30.34-1.11,42.68
		c-5.23,0.94-2.77-6.02-3.97-9.15c-8.26,6.62-18.19,12.06-29.07,10.53 M204.34,85.09c-60.89,2.44-44.37,52.02-9.23,31.48
		c3.17-1.96,7.73-4.07,9.27-7.49C204.51,101.07,204.49,93.09,204.34,85.09z"/>
	<path class="st0" d="M80.97,114.62c0.23,0.14,0.36,0.44,0.52,0.68c0.73,1.08,1.33,2.28,2.21,3.22c1.04,1.09,2.44,1.75,3.92,2.12
		c1.81,0.45,3.65,0.44,5.49,0.4c1.8-0.03,3.41-0.83,5.15-1.11c0.53-0.09,1-0.5,1.52-0.7c0.95-0.36,2.07,0.26,2.19,1.27
		c0.08,0.62,0.18,1.11,0.7,1.54c0.49,0.41,0.29,0.88-0.3,1.09c-0.45,0.15-0.88,0.37-1.31,0.55c-0.17,0.07-0.34,0.17-0.51,0.22
		c-1.86,0.45-3.73,0.86-5.58,1.34c-0.94,0.24-1.9,0.24-2.85,0.51c-0.37,0.11-0.78,0.11-1.21,0.07c-0.56-0.06-1.14-0.2-1.68-0.29
		c-1.41-0.24-2.87-0.38-4.18-0.89c-1.98-0.78-3.86-1.79-5.37-3.4c-1.67-1.77-2.6-3.87-3.21-6.15c-0.77-2.88-1.11-5.81-1.1-8.8
		c0.03-15.25,0.01-30.51,0.01-45.76c0-0.48,0-0.96,0-1.6c-3.75,0-7.31,0-10.94,0c-0.23-1.09-0.32-2.12-0.2-3.17
		c0.07-0.59,0.23-0.95,1.11-0.94c1.38,0.03,2.75-0.08,4.14-0.35c1.34-0.26,2.77-0.08,4.16-0.09c0.52,0,1.04,0,1.64,0
		c0.04-0.45,0.09-0.77,0.09-1.1c0.05-4.47,0.05-8.94,0.16-13.41c0.03-1.49,0.38-2.96,0.31-4.47c-0.03-0.69,1.01-1.41,1.73-1.38
		c0.41,0.02,0.83,0.02,1.24,0.03c0.41,0,0.81,0,1.36,0c0.07,0.68,0.18,1.3,0.18,1.92c0.01,5.56,0,11.12-0.01,16.68
		c0,0.52,0,1.04,0,1.68c6.88,0,13.66,0,20.56,0c0.1,1.62,0.29,3.12-0.14,4.57c-6.37,0-12.6,0-18.84,0c-0.15,0-0.3,0-0.45-0.01
		c-1.04-0.09-1.1-0.06-1.12,0.93c-0.02,1.31,0.01,2.63,0.01,3.94c0,14.39,0,28.78,0,43.17c0,1.47,0.03,2.93,0.04,4.4"/>
	<path class="st0" d="M80.78,113.3"/>
	<path class="st0" d="M244.71,121.22c0.42,1.55,0.82,3,1.24,4.55c-2.25,0.1-4.33,0.55-6.43,0.05c-0.11-0.03-0.25-0.01-0.33-0.07
		c-1.14-0.86-2.61-1.28-3.3-2.74c-0.73-1.55-1.23-3.15-1.28-4.86c-0.06-1.73-0.07-3.46-0.07-5.18c-0.01-30.28-0.01-60.57-0.01-90.85
		c0-0.78,0-1.57,0-2.45c1.58,0,3.1,0,4.75,0c0.03,0.44,0.08,0.87,0.08,1.3c0.01,8.87,0.01,17.73,0.02,26.6
		c0,22.73,0,45.46,0.01,68.19c0,1.01,0.01,2.03,0.08,3.04c0.02,0.4,0.14,0.82,0.33,1.17c0.91,1.61,1.74,1.94,3.77,1.52
		C243.92,121.42,244.27,121.33,244.71,121.22z"/>
	<path class="st0" d="M281.55,41.87c-5.23,0-10.46,0-15.68,0c-1.2,0-2.09-0.6-2.5-1.7c-0.38-1.04,0.22-1.87,0.61-2.74
		c0.19-0.43,0.44-0.85,0.66-1.26c0.09-0.16,0.16-0.35,0.29-0.46c0.75-0.66,1.15-1.54,1.59-2.4c0.13-0.26,0.29-0.51,0.46-0.76
		c0.08-0.12,0.27-0.2,0.3-0.33c0.37-1.57,1.72-2.56,2.32-4.03c0.5-1.22,1.43-2.25,2.11-3.4c0.55-0.93,1-1.91,1.51-2.86
		c0.1-0.19,0.29-0.34,0.4-0.53c0.59-0.99,1.17-1.99,1.74-3c0.05-0.09,0.06-0.22,0.05-0.33c-0.02-3.23-0.05-6.45-0.08-9.68
		c0-0.08-0.02-0.15-0.01-0.22c0.35-1.64-0.32-2.89-1.54-3.91c-0.76-0.64-0.82-1.46-0.63-2.35c0.1-0.46,0.39-0.71,0.73-1.03
		c0.93-0.89,2.02-0.86,3.15-0.86c3.23,0.01,6.47,0.07,9.7-0.03c1.23-0.04,2.07,0.55,2.92,1.2c0.6,0.47,0.51,2.2-0.04,2.76
		c-0.53,0.53-1.05,1.08-1.5,1.67c-0.2,0.27-0.32,0.67-0.32,1.01c-0.03,3.72-0.06,7.43,0.01,11.15c0.01,0.74,0.37,1.51,0.7,2.2
		c0.44,0.9,1.01,1.74,1.54,2.59c1.16,1.86,2.35,3.71,3.5,5.57c0.37,0.6,0.68,1.23,1.04,1.84c1.17,2,2.35,4,3.54,5.99
		c0.29,0.48,0.69,0.89,0.93,1.39c0.36,0.73,0.68,1.5,0.91,2.28c0.13,0.42-0.8,1.65-1.25,1.85c-0.59,0.27-1.18,0.39-1.84,0.38
		C291.78,41.85,286.67,41.86,281.55,41.87C281.55,41.86,281.55,41.86,281.55,41.87z M278.65,3.91c0.08,1.06,0.2,1.9,0.2,2.75
		c0.02,2.82,0.01,5.63,0,8.45c0,1.5-0.01,3-0.05,4.51c-0.01,0.36-0.05,0.84-0.28,1.05c-0.83,0.76-1.25,1.75-1.75,2.71
		c-0.38,0.72-0.78,1.43-1.21,2.12c-0.47,0.76-1,1.49-1.46,2.25c-0.5,0.82-0.94,1.67-1.43,2.5c-0.43,0.74-0.89,1.46-1.34,2.19
		c-0.44,0.73-1,1.39-1.19,2.25c-1.22,0.89-1.4,2.45-2.45,3.62c9.29-0.01,18.4,0.01,27.7-0.01c-1.14-1.85-2.17-3.49-3.17-5.15
		c-0.65-1.09-1.31-2.17-1.98-3.25c-0.7-1.13-1.34-2.31-2-3.47c-0.27-0.48-0.71-0.86-0.99-1.34c-0.5-0.87-0.92-1.78-1.41-2.66
		c-0.27-0.49-0.63-0.93-0.9-1.42c-0.26-0.48-0.52-0.99-0.64-1.51c-0.11-0.5-0.06-1.05-0.06-1.57c0-2.33-0.04-4.66,0.01-6.98
		c0.05-2.3-0.27-4.61,0.32-6.98C282.54,3.77,280.57,3.78,278.65,3.91z"/>
</g>
</svg>
